<mxfile host="app.diagrams.net" agent="Mozilla/5.0 (Windows NT 10.0; Win64; x64) AppleWebKit/537.36 (KHTML, like Gecko) Chrome/129.0.0.0 Safari/537.36" version="24.7.17">
  <diagram name="Página-1" id="9Mnr9bwkLFEtax_ciwYg">
    <mxGraphModel grid="1" page="1" gridSize="10" guides="1" tooltips="1" connect="1" arrows="1" fold="1" pageScale="1" pageWidth="827" pageHeight="1169" math="0" shadow="0">
      <root>
        <mxCell id="0" />
        <mxCell id="1" parent="0" />
        <mxCell id="sg6PDRcxMqlj18ELCd1W-1" value="" style="endArrow=none;html=1;rounded=0;" edge="1" parent="1">
          <mxGeometry width="50" height="50" relative="1" as="geometry">
            <mxPoint x="260" y="210" as="sourcePoint" />
            <mxPoint x="1400" y="210" as="targetPoint" />
          </mxGeometry>
        </mxCell>
        <mxCell id="sg6PDRcxMqlj18ELCd1W-2" value="" style="endArrow=none;html=1;rounded=0;" edge="1" parent="1">
          <mxGeometry width="50" height="50" relative="1" as="geometry">
            <mxPoint x="400" y="150" as="sourcePoint" />
            <mxPoint x="400" y="1320" as="targetPoint" />
          </mxGeometry>
        </mxCell>
        <mxCell id="sg6PDRcxMqlj18ELCd1W-3" value="" style="endArrow=none;html=1;rounded=0;" edge="1" parent="1">
          <mxGeometry width="50" height="50" relative="1" as="geometry">
            <mxPoint x="770" y="160" as="sourcePoint" />
            <mxPoint x="770" y="1320" as="targetPoint" />
          </mxGeometry>
        </mxCell>
        <mxCell id="sg6PDRcxMqlj18ELCd1W-4" value="" style="endArrow=none;html=1;rounded=0;" edge="1" parent="1">
          <mxGeometry width="50" height="50" relative="1" as="geometry">
            <mxPoint x="1068.89" y="135" as="sourcePoint" />
            <mxPoint x="1070" y="1320" as="targetPoint" />
          </mxGeometry>
        </mxCell>
        <mxCell id="sg6PDRcxMqlj18ELCd1W-5" value="" style="endArrow=none;html=1;rounded=0;" edge="1" parent="1">
          <mxGeometry width="50" height="50" relative="1" as="geometry">
            <mxPoint x="1380" y="160" as="sourcePoint" />
            <mxPoint x="1380" y="1330" as="targetPoint" />
          </mxGeometry>
        </mxCell>
        <mxCell id="sg6PDRcxMqlj18ELCd1W-6" value="Usuario" style="shape=umlActor;verticalLabelPosition=bottom;verticalAlign=top;html=1;outlineConnect=0;" vertex="1" parent="1">
          <mxGeometry x="310" y="100" width="50" height="90" as="geometry" />
        </mxCell>
        <mxCell id="sg6PDRcxMqlj18ELCd1W-7" value="Interfaz" style="text;html=1;align=center;verticalAlign=middle;resizable=0;points=[];autosize=1;strokeColor=none;fillColor=none;" vertex="1" parent="1">
          <mxGeometry x="530" y="160" width="60" height="30" as="geometry" />
        </mxCell>
        <mxCell id="sg6PDRcxMqlj18ELCd1W-8" value="Sistema" style="text;html=1;align=center;verticalAlign=middle;resizable=0;points=[];autosize=1;strokeColor=none;fillColor=none;" vertex="1" parent="1">
          <mxGeometry x="800" y="160" width="70" height="30" as="geometry" />
        </mxCell>
        <mxCell id="sg6PDRcxMqlj18ELCd1W-9" value="Base de datos" style="text;html=1;align=center;verticalAlign=middle;resizable=0;points=[];autosize=1;strokeColor=none;fillColor=none;" vertex="1" parent="1">
          <mxGeometry x="1070" y="150" width="100" height="30" as="geometry" />
        </mxCell>
        <mxCell id="sg6PDRcxMqlj18ELCd1W-10" value="" style="points=[[0.145,0.145,0],[0.5,0,0],[0.855,0.145,0],[1,0.5,0],[0.855,0.855,0],[0.5,1,0],[0.145,0.855,0],[0,0.5,0]];shape=mxgraph.bpmn.event;html=1;verticalLabelPosition=bottom;labelBackgroundColor=#ffffff;verticalAlign=top;align=center;perimeter=ellipsePerimeter;outlineConnect=0;aspect=fixed;outline=standard;symbol=general;shadow=1;strokeColor=default;fontFamily=Helvetica;fontSize=12;fontColor=default;fillColor=#000000;" vertex="1" parent="1">
          <mxGeometry x="130" y="980" width="50" height="50" as="geometry" />
        </mxCell>
        <mxCell id="sg6PDRcxMqlj18ELCd1W-11" value="" style="edgeStyle=orthogonalEdgeStyle;rounded=0;orthogonalLoop=1;jettySize=auto;html=1;" edge="1" parent="1" source="sg6PDRcxMqlj18ELCd1W-19" target="sg6PDRcxMqlj18ELCd1W-21">
          <mxGeometry relative="1" as="geometry" />
        </mxCell>
        <mxCell id="sg6PDRcxMqlj18ELCd1W-12" style="edgeStyle=orthogonalEdgeStyle;rounded=0;orthogonalLoop=1;jettySize=auto;html=1;exitX=1;exitY=0.5;exitDx=0;exitDy=0;entryX=0;entryY=0.5;entryDx=0;entryDy=0;" edge="1" parent="1" source="sg6PDRcxMqlj18ELCd1W-19" target="sg6PDRcxMqlj18ELCd1W-39">
          <mxGeometry relative="1" as="geometry" />
        </mxCell>
        <mxCell id="sg6PDRcxMqlj18ELCd1W-13" style="edgeStyle=orthogonalEdgeStyle;rounded=0;orthogonalLoop=1;jettySize=auto;html=1;exitX=1;exitY=0.5;exitDx=0;exitDy=0;entryX=0;entryY=0.5;entryDx=0;entryDy=0;" edge="1" parent="1" source="sg6PDRcxMqlj18ELCd1W-19" target="sg6PDRcxMqlj18ELCd1W-41">
          <mxGeometry relative="1" as="geometry" />
        </mxCell>
        <mxCell id="sg6PDRcxMqlj18ELCd1W-14" style="edgeStyle=orthogonalEdgeStyle;rounded=0;orthogonalLoop=1;jettySize=auto;html=1;exitX=1;exitY=0.5;exitDx=0;exitDy=0;entryX=0;entryY=0.5;entryDx=0;entryDy=0;" edge="1" parent="1" source="sg6PDRcxMqlj18ELCd1W-19" target="sg6PDRcxMqlj18ELCd1W-37">
          <mxGeometry relative="1" as="geometry" />
        </mxCell>
        <mxCell id="sg6PDRcxMqlj18ELCd1W-15" style="edgeStyle=orthogonalEdgeStyle;rounded=0;orthogonalLoop=1;jettySize=auto;html=1;exitX=1;exitY=0.5;exitDx=0;exitDy=0;entryX=0;entryY=0.5;entryDx=0;entryDy=0;" edge="1" parent="1" source="sg6PDRcxMqlj18ELCd1W-19" target="sg6PDRcxMqlj18ELCd1W-79">
          <mxGeometry relative="1" as="geometry" />
        </mxCell>
        <mxCell id="sg6PDRcxMqlj18ELCd1W-16" style="edgeStyle=orthogonalEdgeStyle;rounded=0;orthogonalLoop=1;jettySize=auto;html=1;exitX=1;exitY=0.5;exitDx=0;exitDy=0;entryX=0;entryY=0.5;entryDx=0;entryDy=0;" edge="1" parent="1" source="sg6PDRcxMqlj18ELCd1W-19" target="sg6PDRcxMqlj18ELCd1W-81">
          <mxGeometry relative="1" as="geometry" />
        </mxCell>
        <mxCell id="sg6PDRcxMqlj18ELCd1W-19" value="Iniciar sesión" style="rounded=0;whiteSpace=wrap;html=1;" vertex="1" parent="1">
          <mxGeometry x="265" y="265" width="120" height="60" as="geometry" />
        </mxCell>
        <mxCell id="sg6PDRcxMqlj18ELCd1W-110" style="edgeStyle=orthogonalEdgeStyle;rounded=0;orthogonalLoop=1;jettySize=auto;html=1;exitX=1;exitY=0.5;exitDx=0;exitDy=0;" edge="1" parent="1" source="sg6PDRcxMqlj18ELCd1W-21" target="sg6PDRcxMqlj18ELCd1W-87">
          <mxGeometry relative="1" as="geometry" />
        </mxCell>
        <mxCell id="sg6PDRcxMqlj18ELCd1W-21" value="Opción de &quot;Ver stock disponible&quot;" style="rounded=0;whiteSpace=wrap;html=1;" vertex="1" parent="1">
          <mxGeometry x="430" y="265" width="120" height="60" as="geometry" />
        </mxCell>
        <mxCell id="sg6PDRcxMqlj18ELCd1W-22" style="edgeStyle=orthogonalEdgeStyle;rounded=0;orthogonalLoop=1;jettySize=auto;html=1;exitX=1;exitY=0.5;exitDx=0;exitDy=0;exitPerimeter=0;entryX=0;entryY=0.5;entryDx=0;entryDy=0;" edge="1" parent="1" source="sg6PDRcxMqlj18ELCd1W-23" target="sg6PDRcxMqlj18ELCd1W-19">
          <mxGeometry relative="1" as="geometry" />
        </mxCell>
        <mxCell id="sg6PDRcxMqlj18ELCd1W-23" value="" style="points=[[0.145,0.145,0],[0.5,0,0],[0.855,0.145,0],[1,0.5,0],[0.855,0.855,0],[0.5,1,0],[0.145,0.855,0],[0,0.5,0]];shape=mxgraph.bpmn.event;html=1;verticalLabelPosition=bottom;labelBackgroundColor=#ffffff;verticalAlign=top;align=center;perimeter=ellipsePerimeter;outlineConnect=0;aspect=fixed;outline=standard;symbol=general;shadow=1;strokeColor=default;fontFamily=Helvetica;fontSize=12;fontColor=default;fillColor=#000000;" vertex="1" parent="1">
          <mxGeometry x="140" y="270" width="50" height="50" as="geometry" />
        </mxCell>
        <mxCell id="sg6PDRcxMqlj18ELCd1W-24" style="edgeStyle=orthogonalEdgeStyle;rounded=0;orthogonalLoop=1;jettySize=auto;html=1;exitX=1;exitY=0.5;exitDx=0;exitDy=0;entryX=0.5;entryY=0;entryDx=0;entryDy=0;" edge="1" parent="1" source="sg6PDRcxMqlj18ELCd1W-25" target="sg6PDRcxMqlj18ELCd1W-35">
          <mxGeometry relative="1" as="geometry" />
        </mxCell>
        <mxCell id="sg6PDRcxMqlj18ELCd1W-25" value="Guardar datos" style="rounded=0;whiteSpace=wrap;html=1;" vertex="1" parent="1">
          <mxGeometry x="1236" y="530" width="120" height="60" as="geometry" />
        </mxCell>
        <mxCell id="sg6PDRcxMqlj18ELCd1W-112" style="edgeStyle=orthogonalEdgeStyle;rounded=0;orthogonalLoop=1;jettySize=auto;html=1;exitX=1;exitY=0.5;exitDx=0;exitDy=0;" edge="1" parent="1" source="sg6PDRcxMqlj18ELCd1W-28" target="sg6PDRcxMqlj18ELCd1W-45">
          <mxGeometry relative="1" as="geometry" />
        </mxCell>
        <mxCell id="sg6PDRcxMqlj18ELCd1W-28" value="Se valida que los campos sean llenados correctamente" style="rounded=0;whiteSpace=wrap;html=1;" vertex="1" parent="1">
          <mxGeometry x="790" y="530" width="120" height="60" as="geometry" />
        </mxCell>
        <mxCell id="sg6PDRcxMqlj18ELCd1W-29" style="edgeStyle=orthogonalEdgeStyle;rounded=0;orthogonalLoop=1;jettySize=auto;html=1;exitX=0.5;exitY=1;exitDx=0;exitDy=0;entryX=0.5;entryY=0;entryDx=0;entryDy=0;" edge="1" parent="1" source="sg6PDRcxMqlj18ELCd1W-115" target="sg6PDRcxMqlj18ELCd1W-62">
          <mxGeometry relative="1" as="geometry" />
        </mxCell>
        <mxCell id="sg6PDRcxMqlj18ELCd1W-30" value="Envía datos solicitados" style="rounded=0;whiteSpace=wrap;html=1;" vertex="1" parent="1">
          <mxGeometry x="1110" y="265" width="120" height="60" as="geometry" />
        </mxCell>
        <mxCell id="sg6PDRcxMqlj18ELCd1W-120" style="edgeStyle=orthogonalEdgeStyle;rounded=0;orthogonalLoop=1;jettySize=auto;html=1;exitX=0.5;exitY=1;exitDx=0;exitDy=0;entryX=1;entryY=0.5;entryDx=0;entryDy=0;" edge="1" parent="1" source="sg6PDRcxMqlj18ELCd1W-35" target="sg6PDRcxMqlj18ELCd1W-68">
          <mxGeometry relative="1" as="geometry" />
        </mxCell>
        <mxCell id="sg6PDRcxMqlj18ELCd1W-123" value="SI" style="edgeLabel;html=1;align=center;verticalAlign=middle;resizable=0;points=[];" connectable="0" vertex="1" parent="sg6PDRcxMqlj18ELCd1W-120">
          <mxGeometry x="0.7194" y="-4" relative="1" as="geometry">
            <mxPoint as="offset" />
          </mxGeometry>
        </mxCell>
        <mxCell id="sg6PDRcxMqlj18ELCd1W-121" style="edgeStyle=orthogonalEdgeStyle;rounded=0;orthogonalLoop=1;jettySize=auto;html=1;exitX=0.5;exitY=1;exitDx=0;exitDy=0;entryX=1;entryY=0.5;entryDx=0;entryDy=0;" edge="1" parent="1" source="sg6PDRcxMqlj18ELCd1W-35" target="sg6PDRcxMqlj18ELCd1W-66">
          <mxGeometry relative="1" as="geometry" />
        </mxCell>
        <mxCell id="sg6PDRcxMqlj18ELCd1W-124" value="SI" style="edgeLabel;html=1;align=center;verticalAlign=middle;resizable=0;points=[];" connectable="0" vertex="1" parent="sg6PDRcxMqlj18ELCd1W-121">
          <mxGeometry x="0.7492" y="-1" relative="1" as="geometry">
            <mxPoint as="offset" />
          </mxGeometry>
        </mxCell>
        <mxCell id="sg6PDRcxMqlj18ELCd1W-122" style="edgeStyle=orthogonalEdgeStyle;rounded=0;orthogonalLoop=1;jettySize=auto;html=1;exitX=0.5;exitY=1;exitDx=0;exitDy=0;entryX=1;entryY=0.5;entryDx=0;entryDy=0;" edge="1" parent="1" source="sg6PDRcxMqlj18ELCd1W-35" target="sg6PDRcxMqlj18ELCd1W-88">
          <mxGeometry relative="1" as="geometry" />
        </mxCell>
        <mxCell id="sg6PDRcxMqlj18ELCd1W-125" value="NO" style="edgeLabel;html=1;align=center;verticalAlign=middle;resizable=0;points=[];" connectable="0" vertex="1" parent="sg6PDRcxMqlj18ELCd1W-122">
          <mxGeometry x="0.7555" y="-4" relative="1" as="geometry">
            <mxPoint as="offset" />
          </mxGeometry>
        </mxCell>
        <mxCell id="sg6PDRcxMqlj18ELCd1W-35" value="¿Los datos se guardan?" style="rhombus;whiteSpace=wrap;html=1;" vertex="1" parent="1">
          <mxGeometry x="1271" y="710" width="85" height="90" as="geometry" />
        </mxCell>
        <mxCell id="sg6PDRcxMqlj18ELCd1W-104" style="edgeStyle=orthogonalEdgeStyle;rounded=0;orthogonalLoop=1;jettySize=auto;html=1;exitX=1;exitY=0.5;exitDx=0;exitDy=0;entryX=0;entryY=0.5;entryDx=0;entryDy=0;" edge="1" parent="1" source="sg6PDRcxMqlj18ELCd1W-37" target="sg6PDRcxMqlj18ELCd1W-43">
          <mxGeometry relative="1" as="geometry" />
        </mxCell>
        <mxCell id="sg6PDRcxMqlj18ELCd1W-37" value="Opción de &quot;Modificación de inventario&quot;" style="rounded=0;whiteSpace=wrap;html=1;" vertex="1" parent="1">
          <mxGeometry x="430" y="530" width="120" height="60" as="geometry" />
        </mxCell>
        <mxCell id="sg6PDRcxMqlj18ELCd1W-102" style="edgeStyle=orthogonalEdgeStyle;rounded=0;orthogonalLoop=1;jettySize=auto;html=1;exitX=1;exitY=0.5;exitDx=0;exitDy=0;entryX=0;entryY=0.5;entryDx=0;entryDy=0;" edge="1" parent="1" source="sg6PDRcxMqlj18ELCd1W-39" target="sg6PDRcxMqlj18ELCd1W-43">
          <mxGeometry relative="1" as="geometry" />
        </mxCell>
        <mxCell id="sg6PDRcxMqlj18ELCd1W-39" value="Opción de &quot;Entrada de inventario&quot;" style="rounded=0;whiteSpace=wrap;html=1;" vertex="1" parent="1">
          <mxGeometry x="430" y="350" width="120" height="60" as="geometry" />
        </mxCell>
        <mxCell id="sg6PDRcxMqlj18ELCd1W-105" style="edgeStyle=orthogonalEdgeStyle;rounded=0;orthogonalLoop=1;jettySize=auto;html=1;exitX=1;exitY=0.5;exitDx=0;exitDy=0;entryX=0;entryY=0.5;entryDx=0;entryDy=0;" edge="1" parent="1" source="sg6PDRcxMqlj18ELCd1W-41" target="sg6PDRcxMqlj18ELCd1W-43">
          <mxGeometry relative="1" as="geometry" />
        </mxCell>
        <mxCell id="sg6PDRcxMqlj18ELCd1W-41" value="Opción de &quot;Salida de inventario" style="rounded=0;whiteSpace=wrap;html=1;" vertex="1" parent="1">
          <mxGeometry x="430" y="440" width="120" height="60" as="geometry" />
        </mxCell>
        <mxCell id="sg6PDRcxMqlj18ELCd1W-42" style="edgeStyle=orthogonalEdgeStyle;rounded=0;orthogonalLoop=1;jettySize=auto;html=1;exitX=1;exitY=0.5;exitDx=0;exitDy=0;entryX=0;entryY=0.5;entryDx=0;entryDy=0;" edge="1" parent="1" source="sg6PDRcxMqlj18ELCd1W-43" target="sg6PDRcxMqlj18ELCd1W-28">
          <mxGeometry relative="1" as="geometry" />
        </mxCell>
        <mxCell id="sg6PDRcxMqlj18ELCd1W-43" value="Llenar formulario de solicitud" style="rounded=0;whiteSpace=wrap;html=1;" vertex="1" parent="1">
          <mxGeometry x="620" y="530" width="120" height="60" as="geometry" />
        </mxCell>
        <mxCell id="sg6PDRcxMqlj18ELCd1W-44" style="edgeStyle=orthogonalEdgeStyle;rounded=0;orthogonalLoop=1;jettySize=auto;html=1;exitX=1;exitY=0.5;exitDx=0;exitDy=0;entryX=0;entryY=0.5;entryDx=0;entryDy=0;" edge="1" parent="1" source="sg6PDRcxMqlj18ELCd1W-45" target="sg6PDRcxMqlj18ELCd1W-25">
          <mxGeometry relative="1" as="geometry" />
        </mxCell>
        <mxCell id="sg6PDRcxMqlj18ELCd1W-45" value="Enviar formulario de solicitud" style="rounded=0;whiteSpace=wrap;html=1;" vertex="1" parent="1">
          <mxGeometry x="940" y="530" width="120" height="60" as="geometry" />
        </mxCell>
        <mxCell id="sg6PDRcxMqlj18ELCd1W-46" style="edgeStyle=orthogonalEdgeStyle;rounded=0;orthogonalLoop=1;jettySize=auto;html=1;exitX=1;exitY=0.5;exitDx=0;exitDy=0;entryX=0;entryY=0.5;entryDx=0;entryDy=0;" edge="1" parent="1" source="sg6PDRcxMqlj18ELCd1W-47" target="sg6PDRcxMqlj18ELCd1W-30">
          <mxGeometry relative="1" as="geometry" />
        </mxCell>
        <mxCell id="sg6PDRcxMqlj18ELCd1W-47" value="Solicitar datos del producto buscado" style="rounded=0;whiteSpace=wrap;html=1;" vertex="1" parent="1">
          <mxGeometry x="840" y="265" width="120" height="60" as="geometry" />
        </mxCell>
        <mxCell id="sg6PDRcxMqlj18ELCd1W-52" style="edgeStyle=orthogonalEdgeStyle;rounded=0;orthogonalLoop=1;jettySize=auto;html=1;exitX=0;exitY=0.5;exitDx=0;exitDy=0;entryX=1;entryY=0.5;entryDx=0;entryDy=0;" edge="1" parent="1" source="sg6PDRcxMqlj18ELCd1W-62" target="sg6PDRcxMqlj18ELCd1W-77">
          <mxGeometry relative="1" as="geometry" />
        </mxCell>
        <mxCell id="sg6PDRcxMqlj18ELCd1W-127" value="SI" style="edgeLabel;html=1;align=center;verticalAlign=middle;resizable=0;points=[];" connectable="0" vertex="1" parent="sg6PDRcxMqlj18ELCd1W-52">
          <mxGeometry x="0.5426" y="-2" relative="1" as="geometry">
            <mxPoint as="offset" />
          </mxGeometry>
        </mxCell>
        <mxCell id="sg6PDRcxMqlj18ELCd1W-128" style="edgeStyle=orthogonalEdgeStyle;rounded=0;orthogonalLoop=1;jettySize=auto;html=1;exitX=0.5;exitY=1;exitDx=0;exitDy=0;entryX=1;entryY=0.5;entryDx=0;entryDy=0;" edge="1" parent="1" source="sg6PDRcxMqlj18ELCd1W-62" target="sg6PDRcxMqlj18ELCd1W-91">
          <mxGeometry relative="1" as="geometry" />
        </mxCell>
        <mxCell id="sg6PDRcxMqlj18ELCd1W-129" value="NO" style="edgeLabel;html=1;align=center;verticalAlign=middle;resizable=0;points=[];" connectable="0" vertex="1" parent="sg6PDRcxMqlj18ELCd1W-128">
          <mxGeometry x="0.6136" y="-1" relative="1" as="geometry">
            <mxPoint as="offset" />
          </mxGeometry>
        </mxCell>
        <mxCell id="sg6PDRcxMqlj18ELCd1W-62" value="¿Los datos se envían correctamente?" style="rhombus;whiteSpace=wrap;html=1;" vertex="1" parent="1">
          <mxGeometry x="1106" y="765" width="130" height="130" as="geometry" />
        </mxCell>
        <mxCell id="sg6PDRcxMqlj18ELCd1W-134" style="edgeStyle=orthogonalEdgeStyle;rounded=0;orthogonalLoop=1;jettySize=auto;html=1;exitX=0;exitY=0.5;exitDx=0;exitDy=0;entryX=1;entryY=0.5;entryDx=0;entryDy=0;" edge="1" parent="1" source="sg6PDRcxMqlj18ELCd1W-66" target="sg6PDRcxMqlj18ELCd1W-71">
          <mxGeometry relative="1" as="geometry" />
        </mxCell>
        <mxCell id="sg6PDRcxMqlj18ELCd1W-66" value="Mensaje &quot;Se muestra el espacio físico del producto&quot;" style="rounded=0;whiteSpace=wrap;html=1;" vertex="1" parent="1">
          <mxGeometry x="630" y="1109" width="120" height="60" as="geometry" />
        </mxCell>
        <mxCell id="sg6PDRcxMqlj18ELCd1W-133" style="edgeStyle=orthogonalEdgeStyle;rounded=0;orthogonalLoop=1;jettySize=auto;html=1;exitX=0;exitY=0.5;exitDx=0;exitDy=0;entryX=1;entryY=0.5;entryDx=0;entryDy=0;" edge="1" parent="1" source="sg6PDRcxMqlj18ELCd1W-68" target="sg6PDRcxMqlj18ELCd1W-71">
          <mxGeometry relative="1" as="geometry" />
        </mxCell>
        <mxCell id="sg6PDRcxMqlj18ELCd1W-68" value="Mensaje &quot;El inventario se modifico-se agrego -se elimino con éxito&quot;" style="rounded=0;whiteSpace=wrap;html=1;" vertex="1" parent="1">
          <mxGeometry x="630" y="1030" width="120" height="60" as="geometry" />
        </mxCell>
        <mxCell id="sg6PDRcxMqlj18ELCd1W-71" value="Cerrar Sesión&amp;nbsp;" style="rounded=0;whiteSpace=wrap;html=1;" vertex="1" parent="1">
          <mxGeometry x="240" y="975" width="120" height="60" as="geometry" />
        </mxCell>
        <mxCell id="sg6PDRcxMqlj18ELCd1W-72" style="edgeStyle=orthogonalEdgeStyle;rounded=0;orthogonalLoop=1;jettySize=auto;html=1;exitX=0;exitY=0.5;exitDx=0;exitDy=0;entryX=1;entryY=0.5;entryDx=0;entryDy=0;entryPerimeter=0;" edge="1" parent="1" source="sg6PDRcxMqlj18ELCd1W-71" target="sg6PDRcxMqlj18ELCd1W-10">
          <mxGeometry relative="1" as="geometry" />
        </mxCell>
        <mxCell id="sg6PDRcxMqlj18ELCd1W-75" style="edgeStyle=orthogonalEdgeStyle;rounded=0;orthogonalLoop=1;jettySize=auto;html=1;exitX=0.5;exitY=1;exitDx=0;exitDy=0;" edge="1" parent="1" source="sg6PDRcxMqlj18ELCd1W-35" target="sg6PDRcxMqlj18ELCd1W-35">
          <mxGeometry relative="1" as="geometry" />
        </mxCell>
        <mxCell id="sg6PDRcxMqlj18ELCd1W-130" style="edgeStyle=orthogonalEdgeStyle;rounded=0;orthogonalLoop=1;jettySize=auto;html=1;exitX=0;exitY=0.5;exitDx=0;exitDy=0;entryX=1;entryY=0.5;entryDx=0;entryDy=0;" edge="1" parent="1" source="sg6PDRcxMqlj18ELCd1W-77" target="sg6PDRcxMqlj18ELCd1W-71">
          <mxGeometry relative="1" as="geometry" />
        </mxCell>
        <mxCell id="sg6PDRcxMqlj18ELCd1W-77" value="Se muestra el stock disponible" style="rounded=0;whiteSpace=wrap;html=1;" vertex="1" parent="1">
          <mxGeometry x="630" y="800" width="120" height="60" as="geometry" />
        </mxCell>
        <mxCell id="sg6PDRcxMqlj18ELCd1W-114" style="edgeStyle=orthogonalEdgeStyle;rounded=0;orthogonalLoop=1;jettySize=auto;html=1;exitX=1;exitY=0.5;exitDx=0;exitDy=0;" edge="1" parent="1" source="sg6PDRcxMqlj18ELCd1W-79" target="sg6PDRcxMqlj18ELCd1W-113">
          <mxGeometry relative="1" as="geometry" />
        </mxCell>
        <mxCell id="sg6PDRcxMqlj18ELCd1W-79" value="Opción de &quot;Generación de reporte anual de inventario&quot;" style="rounded=0;whiteSpace=wrap;html=1;" vertex="1" parent="1">
          <mxGeometry x="430" y="620" width="120" height="60" as="geometry" />
        </mxCell>
        <mxCell id="sg6PDRcxMqlj18ELCd1W-109" style="edgeStyle=orthogonalEdgeStyle;rounded=0;orthogonalLoop=1;jettySize=auto;html=1;exitX=1;exitY=0.5;exitDx=0;exitDy=0;entryX=0;entryY=0.5;entryDx=0;entryDy=0;" edge="1" parent="1" source="sg6PDRcxMqlj18ELCd1W-81" target="sg6PDRcxMqlj18ELCd1W-43">
          <mxGeometry relative="1" as="geometry" />
        </mxCell>
        <mxCell id="sg6PDRcxMqlj18ELCd1W-81" value="Opción de&quot; Ver espacio físico de inventario&quot;" style="rounded=0;whiteSpace=wrap;html=1;" vertex="1" parent="1">
          <mxGeometry x="430" y="710" width="120" height="60" as="geometry" />
        </mxCell>
        <mxCell id="sg6PDRcxMqlj18ELCd1W-111" style="edgeStyle=orthogonalEdgeStyle;rounded=0;orthogonalLoop=1;jettySize=auto;html=1;exitX=1;exitY=0.5;exitDx=0;exitDy=0;entryX=0;entryY=0.5;entryDx=0;entryDy=0;" edge="1" parent="1" source="sg6PDRcxMqlj18ELCd1W-87" target="sg6PDRcxMqlj18ELCd1W-47">
          <mxGeometry relative="1" as="geometry" />
        </mxCell>
        <mxCell id="sg6PDRcxMqlj18ELCd1W-87" value="Seleccionar producto a revisar" style="rounded=0;whiteSpace=wrap;html=1;" vertex="1" parent="1">
          <mxGeometry x="620" y="265" width="120" height="60" as="geometry" />
        </mxCell>
        <mxCell id="sg6PDRcxMqlj18ELCd1W-135" style="edgeStyle=orthogonalEdgeStyle;rounded=0;orthogonalLoop=1;jettySize=auto;html=1;exitX=0;exitY=0.5;exitDx=0;exitDy=0;entryX=1;entryY=0.5;entryDx=0;entryDy=0;" edge="1" parent="1" source="sg6PDRcxMqlj18ELCd1W-88" target="sg6PDRcxMqlj18ELCd1W-71">
          <mxGeometry relative="1" as="geometry" />
        </mxCell>
        <mxCell id="sg6PDRcxMqlj18ELCd1W-88" value="Error" style="rounded=0;whiteSpace=wrap;html=1;" vertex="1" parent="1">
          <mxGeometry x="630" y="1190" width="120" height="60" as="geometry" />
        </mxCell>
        <mxCell id="sg6PDRcxMqlj18ELCd1W-132" style="edgeStyle=orthogonalEdgeStyle;rounded=0;orthogonalLoop=1;jettySize=auto;html=1;exitX=0;exitY=0.5;exitDx=0;exitDy=0;entryX=1;entryY=0.5;entryDx=0;entryDy=0;" edge="1" parent="1" source="sg6PDRcxMqlj18ELCd1W-91" target="sg6PDRcxMqlj18ELCd1W-71">
          <mxGeometry relative="1" as="geometry" />
        </mxCell>
        <mxCell id="sg6PDRcxMqlj18ELCd1W-91" value="Error" style="rounded=0;whiteSpace=wrap;html=1;" vertex="1" parent="1">
          <mxGeometry x="630" y="895" width="120" height="60" as="geometry" />
        </mxCell>
        <mxCell id="sg6PDRcxMqlj18ELCd1W-117" style="edgeStyle=orthogonalEdgeStyle;rounded=0;orthogonalLoop=1;jettySize=auto;html=1;exitX=1;exitY=0.5;exitDx=0;exitDy=0;" edge="1" parent="1" source="sg6PDRcxMqlj18ELCd1W-113" target="sg6PDRcxMqlj18ELCd1W-115">
          <mxGeometry relative="1" as="geometry" />
        </mxCell>
        <mxCell id="sg6PDRcxMqlj18ELCd1W-113" value="Solicitar datos de reporte" style="rounded=0;whiteSpace=wrap;html=1;" vertex="1" parent="1">
          <mxGeometry x="790" y="620" width="120" height="60" as="geometry" />
        </mxCell>
        <mxCell id="sg6PDRcxMqlj18ELCd1W-116" value="" style="edgeStyle=orthogonalEdgeStyle;rounded=0;orthogonalLoop=1;jettySize=auto;html=1;exitX=0.5;exitY=1;exitDx=0;exitDy=0;entryX=0.5;entryY=0;entryDx=0;entryDy=0;" edge="1" parent="1" source="sg6PDRcxMqlj18ELCd1W-30" target="sg6PDRcxMqlj18ELCd1W-115">
          <mxGeometry relative="1" as="geometry">
            <mxPoint x="1170" y="325" as="sourcePoint" />
            <mxPoint x="1171" y="730" as="targetPoint" />
          </mxGeometry>
        </mxCell>
        <mxCell id="sg6PDRcxMqlj18ELCd1W-115" value="Enviar datos solicitados" style="rounded=0;whiteSpace=wrap;html=1;" vertex="1" parent="1">
          <mxGeometry x="1110" y="620" width="120" height="60" as="geometry" />
        </mxCell>
      </root>
    </mxGraphModel>
  </diagram>
</mxfile>
